<svg xmlns="http://www.w3.org/2000/svg" viewBox="0 0 109.97 109.65"><defs><style>.cls-1{fill:#fff;}</style></defs><title>Asset 1</title><g id="Layer_2" data-name="Layer 2"><g id="Layer_1-2" data-name="Layer 1"><path class="cls-1" d="M23.75,18.48c1.35-.86,2.84-.57,4.08.79,1.52,1.66,1.6,3.65-.44,5.52l-2.6,2.38L15.33,16.82l2.43-2.22c2-1.82,3.86-1.63,5.36,0,1.21,1.31,1.37,2.73.6,3.83Zm-2.67,1.33.65-.59c1.05-1,.94-1.8,0-2.87s-1.76-1.21-2.81-.25l-.65.6Zm4.09,4.48.79-.72c1.08-1,1-1.89,0-3s-1.86-1.22-2.95-.23l-.79.72Z"/><path class="cls-1" d="M39.43,17l-5.72,2.93L27.32,7.43,33,4.5l.9,1.76L30.27,8.14l1.81,3.53,3.05-1.56.87,1.7-3,1.56,1.92,3.74,3.66-1.88Z"/><path class="cls-1" d="M43.89,1C46.21.49,47.59,2,48.27,4.19l-1.93,1C46,3.89,45.36,2.73,44.29,3c-1.23.26-1.4,2.27-.73,5.42s1.66,4.94,2.89,4.68,1.15-1.57.95-2.91l2.19.13c.27,2.24-.35,4.25-2.69,4.75-2.69.57-4.71-1.64-5.68-6.15S41.18,1.56,43.89,1Z"/><path class="cls-1" d="M63.09,7.51c-.36,4.61-2.08,7.05-4.93,6.83s-4.16-2.9-3.8-7.5,2.06-7,4.91-6.83S63.45,2.91,63.09,7.51ZM56.75,7c-.27,3.37.16,5.24,1.56,5.35s2.11-1.67,2.37-5S60.54,2.09,59.12,2,57,3.65,56.75,7Z"/><path class="cls-1" d="M72.31,13.94,71,13.42l.83-6.84-.08,0-1,2.65L68,16.08,66,15.26l5.23-13,2.55,1L73,10.44l.07,0,4.45-5.71,2.43,1-5.23,13-2-.81,2.76-6.88,1.09-2.61-.07,0Z"/><path class="cls-1" d="M83.33,25.19l-5-4,8.78-10.93,5,4L90.88,15.8l-3.2-2.58-2.49,3.09,2.67,2.15-1.2,1.48L84,17.8l-2.63,3.27,3.21,2.58Z"/><path class="cls-1" d="M95.75,36.91l-1.37-2.82L90.87,35l-1-2,13.93-3.42,1.28,2.62L93.84,41.13l-1-2Zm.39-3.28L97.2,35.8l4.92-3.7,0-.06Z"/><path class="cls-1" d="M109.64,48.26l.33,2.1L96.11,52.54l-.31-2,8.58-5.16v-.08L95.2,46.75l-.33-2.12,13.86-2.18.35,2.28-8.15,4.82,0,.08Z"/><path class="cls-1" d="M93.31,69.94l1.84-6.16,13.44,4-1.84,6.16-1.89-.56L106,69.43l-3.81-1.13-1,3.28L99.43,71l1-3.27-4-1.2L95.2,70.5Z"/><path class="cls-1" d="M91.87,80.06l1.67-2.64-2.65-2.49,1.16-1.85,10.25,10-1.56,2.47L87.27,80.66l1.21-1.92Zm3-1.39-1.28,2L99.31,83l0-.06Z"/><path class="cls-1" d="M80.39,87.22a4.08,4.08,0,0,1,1.35.82l2,1.72a1.51,1.51,0,0,0,2.3.06l.71-.62-3.73-4.3,1.74-1.51L94,94l-2.8,2.44c-2.21,1.91-4.12,1.6-5.76-.29A3.2,3.2,0,0,1,85,91.91l0,0a2.37,2.37,0,0,1-2.89-.47l-2.08-1.72a3.71,3.71,0,0,0-1.52-.85Zm9.77,7.56.84-.73-3-3.47-.84.73c-1.25,1.09-1,2,0,3.11S88.9,95.87,90.16,94.78Z"/><path class="cls-1" d="M79.26,104.34,74.05,93.47l-3.54,1.7-.86-1.78,5.64-2.7,6.07,12.64Z"/><path class="cls-1" d="M65.34,103l-.7,6.19-2.26.48,1.28-9.3-1.1-5.09,2.24-.48,1.1,5.09,5,7.95-2.34.5L65.38,103Z"/><path class="cls-1" d="M43.27,97.94l3,.73,1.5-3.32,2.12.51-6.18,13-2.84-.68.3-14.34,2.21.52Zm2.29,2.38-2.35-.56L43,105.92H43Z"/><path class="cls-1" d="M30.84,104.51l-2.71-1.57c-3-1.75-3.17-4.66-.87-8.64s4.9-5.24,7.9-3.5l2.71,1.57ZM34.9,92.88l-.69-.4c-1.69-1-3.13,0-4.88,3s-1.9,4.8-.21,5.78l.69.4Z"/><path class="cls-1" d="M16.86,84.33c3.4-3.13,6.32-3.74,8.25-1.64s1.08,4.94-2.31,8.08-6.3,3.76-8.24,1.66S13.47,87.47,16.86,84.33ZM21.18,89c2.48-2.29,3.44-4,2.48-5S21,83.81,18.5,86.11,15,90,16,91.09,18.69,91.3,21.18,89Z"/><path class="cls-1" d="M14.18,76.5l4.68-2.32,1,2.07L7.31,82.47l-1.47-3C4.55,76.88,5.36,75,7.89,73.73s4.55-.73,5.84,1.87ZM7.61,78.76l.39.79,4.5-2.22-.39-.79c-.64-1.3-1.61-1.5-3.19-.72S7,77.45,7.61,78.76Z"/><path class="cls-1" d="M15,63.82,3.2,66.08l.52,2.74-1.94.37L.3,61.41,2.24,61l.52,2.75L14.6,61.53Z"/><path class="cls-1" d="M14.47,48.57,14,55,0,53.91l.49-6.4,2,.15-.31,4.1,4,.3.26-3.42,1.9.15L8,52.2l4.18.32.31-4.1Z"/><path class="cls-1" d="M17.27,39.05A4,4,0,0,1,15.69,39l-2.61-.52c-1.21-.22-1.71.16-2,1.07l-.32.89,5.35,1.94-.79,2.17L2.1,39.75l1.27-3.5c1-2.74,2.82-3.4,5.17-2.54a3.2,3.2,0,0,1,2.39,3.51h0a2.37,2.37,0,0,1,2.75-1l2.65.5a3.78,3.78,0,0,0,1.74,0ZM5.06,37.18l-.38,1L9,39.8l.38-1C10,37.2,9.29,36.51,7.92,36S5.63,35.62,5.06,37.18Z"/></g></g></svg>