<?xml version="1.0" encoding="UTF-8"?>
<svg width="25px" height="58px" viewBox="0 0 25 58" version="1.1" xmlns="http://www.w3.org/2000/svg" xmlns:xlink="http://www.w3.org/1999/xlink">
    <!-- Generator: Sketch 52.2 (67145) - http://www.bohemiancoding.com/sketch -->
    <title>gotcha_g</title>
    <desc>Created with Sketch.</desc>
    <g id="Symbols" stroke="none" stroke-width="1" fill="none" fill-rule="evenodd">
        <g id="navigation" transform="translate(-1243.000000, -8.000000)" fill="#000000" fill-rule="nonzero">
            <g id="gotcha_g" transform="translate(1243.000000, 8.000000)">
                <path d="M12.5,33 C5.52282378,33 0,38.5231169 0,45.5006635 C0,52.4782101 5.52282378,58 12.5,58 C19.4771762,58 25,52.4768831 25,45.5006635 C25,38.524444 19.4771762,33 12.5,33 Z M12.5,52.9612506 C8.52707006,52.9612506 5.3343949,49.6675514 5.3343949,45.5006635 C5.3343949,41.3337757 8.53237792,38.0387494 12.5,38.0387494 C16.4676221,38.0387494 19.6218153,41.3337757 19.6218153,45.5006635 C19.6218153,49.6675514 16.4729299,52.9612506 12.5,52.9612506 Z" id="Shape"></path>
                <path d="M20.5229226,6.99981875 C22.3325685,6.99981875 24,5.4167141 24,3.4526133 C24,1.6776968 22.3325685,0 20.5229226,0 C18.5227876,0 17.00018,1.6776968 17.00018,3.4526133 C16.9906648,4.39629532 17.3587535,5.3041185 18.0214698,5.97143685 C18.6841861,6.63875519 19.5857486,7.00940003 20.5229226,6.99981875 Z" id="Shape"></path>
                <path d="M12.5,7 C5.52282378,7 0,12.5225307 0,19.4993366 C0,26.4761425 5.52282378,32 12.5,32 C19.4771762,32 25,26.4761425 25,19.5006634 C25,12.5251844 19.4771762,7 12.5,7 Z M12.5,26.9578048 C8.52707006,26.9578048 5.3343949,23.6644552 5.3343949,19.4980097 C5.3343949,15.3315641 8.53237792,12.0368876 12.5,12.0368876 C16.4676221,12.0368876 19.6218153,15.3315641 19.6218153,19.4980097 C19.6218153,23.6644552 16.4729299,26.9578048 12.5,26.9578048 Z" id="Shape"></path>
            </g>
        </g>
    </g>
</svg>